<!DOCTYPE svg PUBLIC "-//W3C//DTD SVG 20010904//EN" "http://www.w3.org/TR/2001/REC-SVG-20010904/DTD/svg10.dtd">
<svg version="1.0" xmlns="http://www.w3.org/2000/svg" width="493px" height="105px" viewBox="0 0 4930 1050" preserveAspectRatio="xMidYMid meet">
<g id="layer101" fill="#7cd5d4" stroke="none">
 <path d="M360 862 l-185 -108 -3 -230 -2 -230 189 -108 c104 -59 197 -106 205 -104 8 1 98 50 200 108 l185 105 1 227 0 226 -186 107 c-103 59 -194 109 -203 111 -9 2 -99 -45 -201 -104z"/>
 <path d="M1732 911 c-8 -4 -12 -21 -10 -37 2 -20 10 -30 28 -34 13 -3 33 -20 43 -37 l18 -32 -45 -120 c-53 -139 -56 -164 -21 -187 41 -27 69 0 98 91 l24 76 22 -74 c22 -75 44 -107 73 -107 20 0 48 32 48 56 0 28 -103 295 -134 348 -15 25 -35 50 -46 56 -23 12 -80 13 -98 1z"/>
 <path d="M1239 763 c-16 -43 -8 -405 10 -426 15 -18 95 -24 119 -8 8 4 29 48 47 97 20 52 36 83 39 74 3 -8 15 -42 26 -74 32 -94 43 -106 96 -106 87 0 84 -8 84 233 0 228 -2 237 -50 237 -46 0 -50 -14 -51 -169 l0 -146 -37 100 c-34 92 -40 100 -66 103 -38 5 -46 -5 -83 -106 l-32 -87 0 127 c-1 157 -8 178 -56 178 -30 0 -37 -5 -46 -27z"/>
 <path d="M2072 778 c-9 -9 -12 -66 -12 -213 0 -237 2 -245 79 -245 60 0 71 11 108 117 l29 82 28 -84 c16 -46 36 -91 46 -100 22 -20 104 -20 124 1 14 13 16 48 16 223 0 218 -3 231 -46 231 -54 0 -54 -1 -55 -169 l0 -156 -38 105 -38 105 -35 3 c-40 3 -36 10 -94 -156 l-19 -53 -5 158 -5 158 -35 3 c-19 2 -41 -3 -48 -10z"/>
 <path d="M2614 771 c-40 -24 -54 -65 -54 -155 0 -54 5 -79 20 -104 35 -57 122 -78 194 -48 56 23 66 48 66 159 l0 99 -34 34 c-32 32 -39 34 -97 34 -45 0 -73 -6 -95 -19z m126 -139 c0 -78 -8 -95 -41 -90 -23 3 -24 8 -27 78 -2 61 0 77 14 87 12 9 22 9 35 2 16 -8 19 -22 19 -77z"/>
 <path d="M2970 771 c-15 -28 -100 -258 -100 -271 0 -15 38 -50 54 -50 25 0 43 27 67 97 12 38 24 64 25 58 2 -5 10 -36 19 -68 21 -73 52 -98 90 -73 14 9 25 25 25 35 0 22 -88 260 -103 279 -15 19 -65 15 -77 -7z"/>
 <path d="M3216 774 c-13 -12 -16 -41 -16 -150 0 -121 2 -136 20 -154 11 -11 27 -20 35 -20 8 0 24 9 35 20 18 18 20 33 20 151 0 72 -5 139 -10 150 -13 23 -62 26 -84 3z"/>
 <path d="M3450 773 c-19 -10 -40 -29 -47 -43 -18 -35 -17 -184 1 -218 36 -69 178 -81 239 -21 25 26 28 34 25 86 l-3 58 -83 3 -83 3 3 31 c4 45 31 58 61 29 19 -17 34 -22 63 -19 36 3 39 6 39 32 0 44 -41 69 -118 74 -46 2 -71 -2 -97 -15z m118 -204 c-7 -48 -68 -51 -68 -4 0 22 4 25 36 25 31 0 35 -3 32 -21z"/>
 <path d="M3760 771 c-6 -12 -10 -99 -10 -213 0 -211 6 -238 55 -238 50 0 55 17 55 201 l0 169 58 0 c62 0 82 11 82 46 0 44 -24 54 -130 54 -88 0 -100 -2 -110 -19z"/>
 <path d="M4076 768 c-12 -17 -16 -49 -16 -138 0 -63 3 -125 7 -138 8 -33 49 -47 79 -27 23 15 24 20 24 151 0 74 -5 144 -10 155 -15 27 -64 25 -84 -3z"/>
 <path d="M4295 779 c-32 -18 -45 -40 -45 -76 0 -26 5 -34 25 -39 34 -8 53 1 65 31 10 27 31 32 49 12 13 -16 0 -29 -69 -72 -57 -36 -69 -52 -70 -93 0 -64 69 -101 163 -89 71 10 117 90 66 117 -25 14 -69 5 -69 -14 0 -7 -7 -19 -15 -26 -12 -10 -18 -10 -30 0 -20 17 -12 26 45 55 89 45 115 114 66 172 -21 24 -32 28 -92 30 -40 2 -78 -1 -89 -8z"/>
 <path d="M4643 775 c-29 -20 -43 -73 -43 -162 0 -71 0 -72 -27 -75 -24 -2 -29 -8 -31 -36 -3 -29 0 -35 27 -45 26 -9 31 -17 31 -44 0 -49 16 -82 45 -89 41 -10 65 19 65 78 0 43 2 48 23 48 41 0 61 28 46 68 -6 16 -16 22 -39 22 l-31 0 3 72 c3 72 3 73 32 78 45 8 55 58 18 88 -22 17 -93 15 -119 -3z"/>
 <path d="M3216 414 c-34 -34 -9 -94 39 -94 30 0 55 25 55 55 0 30 -25 55 -55 55 -13 0 -31 -7 -39 -16z"/>
 <path d="M4073 404 c-15 -24 -15 -29 -2 -53 28 -51 99 -35 99 22 0 40 -15 57 -52 57 -19 0 -33 -8 -45 -26z"/>
 </g>

</svg>